<svg xmlns="http://www.w3.org/2000/svg"  viewBox="0 0 64 64" width="512px" height="512px"><path fill="#7bbeeb" d="M49,27V49H10A9,9,0,0,1,9,31.05c0-.34,0-.69,0-1.05a10,10,0,0,1,15.23-8.52A13,13,0,0,1,49,27Z"/><path fill="#85cbf8" d="M43.85,19.51h0a2,2,0,0,1-2.56.21,9,9,0,0,0-10.15-.29,2,2,0,0,1-2.43-.3h0A2,2,0,0,1,29,16.06a13,13,0,0,1,14.66.42A2,2,0,0,1,43.85,19.51Z"/><path fill="#7bbeeb" d="M49,27V49H10A9,9,0,0,1,9,31.05c0-.34,0-.69,0-1.05a10,10,0,0,1,15.23-8.52,12.66,12.66,0,0,1,2.87-3.95l2.84,2.83a9,9,0,0,1,12.6.46L45.37,18A13,13,0,0,1,49,27Z"/><path fill="#75b8e5" d="M44,44v5H10a9,9,0,0,1-8.06-5Z"/><path fill="#85cbf8" d="M63,47.5a7.15,7.15,0,0,1-.44,2.5,7.49,7.49,0,0,1-7.06,5H23a8,8,0,0,1-7.42-5A8.09,8.09,0,0,1,15,47a8,8,0,0,1,8-8,7.44,7.44,0,0,1,1.06.07A9.47,9.47,0,0,1,24,38a10,10,0,0,1,19.12-4.08A8.5,8.5,0,0,1,57,40.15,7.5,7.5,0,0,1,63,47.5Z"/><path fill="#85cbf8" d="M63,47.5a7.15,7.15,0,0,1-.44,2.5,7.49,7.49,0,0,1-7.06,5H23a8,8,0,0,1-7.42-5A8.09,8.09,0,0,1,15,47a8,8,0,0,1,8-8,7.44,7.44,0,0,1,1.06.07A9.47,9.47,0,0,1,24,38h4a6,6,0,0,1,11.46-2.46L42.4,32.6a10.52,10.52,0,0,1,.72,1.32A8.5,8.5,0,0,1,57,40.15,7.5,7.5,0,0,1,63,47.5Z"/><path fill="#7bbeeb" d="M62.56,50a7.49,7.49,0,0,1-7.06,5H23a8,8,0,0,1-7.42-5Z"/><path fill="#8d6c9f" d="M57.93,39.35A9.45,9.45,0,0,0,50,31.12V27a14,14,0,0,0-26.19-6.89A11,11,0,0,0,8,30v.2A10,10,0,0,0,10,50h4.52A9,9,0,0,0,23,56H55.5a8.5,8.5,0,0,0,2.43-16.65ZM10,48a8,8,0,0,1-.85-16A1,1,0,0,0,10,31c0-.31,0-.63,0-1a9,9,0,0,1,9-9,8.9,8.9,0,0,1,4.7,1.33,1,1,0,0,0,1.44-.43A12,12,0,0,1,48,27v4a9.43,9.43,0,0,0-4.52,1.42A11,11,0,0,0,23,38a9,9,0,0,0-9,9,8.27,8.27,0,0,0,.06,1Zm45.5,6H23a7,7,0,0,1-6.32-4,6.44,6.44,0,0,1-.6-2A5.55,5.55,0,0,1,16,47a7,7,0,0,1,7-7,6.45,6.45,0,0,1,.92.06,1,1,0,0,0,.84-.27,1,1,0,0,0,.29-.84c0-.31,0-.63,0-.95a9,9,0,0,1,17.21-3.67,1,1,0,0,0,1.54.36A7.54,7.54,0,0,1,48,33l.5,0A7.49,7.49,0,0,1,56,40.19a1,1,0,0,0,.8.94A6.5,6.5,0,0,1,55.5,54Z"/><path fill="#8d6c9f" d="M26 48a1 1 0 0 0-1 1v2a1 1 0 0 0 2 0V49A1 1 0 0 0 26 48zM21 48a1 1 0 0 0-1 1v2a1 1 0 0 0 2 0V49A1 1 0 0 0 21 48zM31 48a1 1 0 0 0-1 1v2a1 1 0 0 0 2 0V49A1 1 0 0 0 31 48zM36 48a1 1 0 0 0-1 1v2a1 1 0 0 0 2 0V49A1 1 0 0 0 36 48zM41 48a1 1 0 0 0-1 1v2a1 1 0 0 0 2 0V49A1 1 0 0 0 41 48zM46 48a1 1 0 0 0-1 1v2a1 1 0 0 0 2 0V49A1 1 0 0 0 46 48zM51 48a1 1 0 0 0-1 1v2a1 1 0 0 0 2 0V49A1 1 0 0 0 51 48zM56 48a1 1 0 0 0-1 1v2a1 1 0 0 0 2 0V49A1 1 0 0 0 56 48zM12 42a1 1 0 0 0-1 1v2a1 1 0 0 0 2 0V43A1 1 0 0 0 12 42zM7 42a1 1 0 0 0-1 1v2a1 1 0 0 0 2 0V43A1 1 0 0 0 7 42z"/></svg>