<svg xmlns="http://www.w3.org/2000/svg"  viewBox="0 0 100 100" width="500px" height="500px"><path fill="#c7ede6" d="M87.215,56.71C88.35,54.555,89,52.105,89,49.5c0-6.621-4.159-12.257-10.001-14.478	C78.999,35.015,79,35.008,79,35c0-11.598-9.402-21-21-21c-9.784,0-17.981,6.701-20.313,15.757C36.211,29.272,34.638,29,33,29	c-7.692,0-14.023,5.793-14.89,13.252C12.906,43.353,9,47.969,9,53.5C9,59.851,14.149,65,20.5,65c0.177,0,0.352-0.012,0.526-0.022	C21.022,65.153,21,65.324,21,65.5C21,76.822,30.178,86,41.5,86c6.437,0,12.175-2.972,15.934-7.614C59.612,80.611,62.64,82,66,82	c4.65,0,8.674-2.65,10.666-6.518C77.718,75.817,78.837,76,80,76c6.075,0,11-4.925,11-11C91,61.689,89.53,58.727,87.215,56.71z"/><path fill="#fdfcef" d="M79.875,42.5c0,0,3.64,0,6.125,0s4.5-2.015,4.5-4.5c0-2.333-1.782-4.229-4.055-4.455 C86.467,33.364,86.5,33.187,86.5,33c0-2.485-2.015-4.5-4.5-4.5c-1.438,0-2.703,0.686-3.527,1.736 C78.333,27.6,76.171,25.5,73.5,25.5c-2.761,0-5,2.239-5,5c0,0.446,0.077,0.87,0.187,1.282C68.045,31.005,67.086,30.5,66,30.5 c-1.781,0-3.234,1.335-3.455,3.055C62.364,33.533,62.187,33.5,62,33.5c-2.485,0-4.5,2.015-4.5,4.5s2.015,4.5,4.5,4.5s9.5,0,9.5,0 h5.375V43h3V42.5z"/><path fill="#472b29" d="M73.5,25c-3.033,0-5.5,2.467-5.5,5.5c0,0.016,0,0.031,0,0.047C67.398,30.192,66.71,30,66,30 c-1.831,0-3.411,1.261-3.858,3.005C62.095,33.002,62.048,33,62,33c-2.757,0-5,2.243-5,5s2.243,5,5,5h14.875 c0.276,0,0.5-0.224,0.5-0.5s-0.224-0.5-0.5-0.5H62c-2.206,0-4-1.794-4-4s1.794-4,4-4c0.117,0,0.23,0.017,0.343,0.032l0.141,0.019 c0.021,0.003,0.041,0.004,0.062,0.004c0.246,0,0.462-0.185,0.495-0.437C63.232,32.125,64.504,31,66,31 c0.885,0,1.723,0.401,2.301,1.1c0.098,0.118,0.241,0.182,0.386,0.182c0.078,0,0.156-0.018,0.228-0.056 c0.209-0.107,0.314-0.346,0.254-0.573C69.054,31.218,69,30.852,69,30.5c0-2.481,2.019-4.5,4.5-4.5c2.381,0,4.347,1.872,4.474,4.263 c0.011,0.208,0.15,0.387,0.349,0.45c0.05,0.016,0.101,0.024,0.152,0.024c0.15,0,0.296-0.069,0.392-0.192 C79.638,29.563,80.779,29,82,29c2.206,0,4,1.794,4,4c0,0.117-0.017,0.23-0.032,0.343l-0.019,0.141 c-0.016,0.134,0.022,0.268,0.106,0.373c0.084,0.105,0.207,0.172,0.34,0.185C88.451,34.247,90,35.949,90,38c0,2.206-1.794,4-4,4 h-6.125c-0.276,0-0.5,0.224-0.5,0.5s0.224,0.5,0.5,0.5H86c2.757,0,5-2.243,5-5c0-2.397-1.689-4.413-4.003-4.877 C86.999,33.082,87,33.041,87,33c0-2.757-2.243-5-5-5c-1.176,0-2.293,0.416-3.183,1.164C78.219,26.76,76.055,25,73.5,25L73.5,25z"/><path fill="#472b29" d="M72,32c-1.403,0-2.609,0.999-2.913,2.341C68.72,34.119,68.301,34,67.875,34 c-1.202,0-2.198,0.897-2.353,2.068C65.319,36.022,65.126,36,64.938,36c-1.529,0-2.811,1.2-2.918,2.732 C62.01,38.87,62.114,38.99,62.251,39c0.006,0,0.012,0,0.018,0c0.13,0,0.24-0.101,0.249-0.232c0.089-1.271,1.151-2.268,2.419-2.268 c0.229,0,0.47,0.042,0.738,0.127c0.022,0.007,0.045,0.01,0.067,0.01c0.055,0,0.11-0.02,0.156-0.054 C65.962,36.537,66,36.455,66,36.375c0-1.034,0.841-1.875,1.875-1.875c0.447,0,0.885,0.168,1.231,0.473 c0.047,0.041,0.106,0.063,0.165,0.063c0.032,0,0.063-0.006,0.093-0.019c0.088-0.035,0.148-0.117,0.155-0.212 C69.623,33.512,70.712,32.5,72,32.5c0.208,0,0.425,0.034,0.682,0.107c0.023,0.007,0.047,0.01,0.07,0.01 c0.109,0,0.207-0.073,0.239-0.182c0.038-0.133-0.039-0.271-0.172-0.309C72.517,32.04,72.256,32,72,32L72,32z"/><path fill="#472b29" d="M85.883,33.5c-1.326,0-2.508,0.897-2.874,2.182c-0.038,0.133,0.039,0.271,0.172,0.309 C83.205,35.997,83.228,36,83.25,36c0.109,0,0.209-0.072,0.24-0.182C83.795,34.748,84.779,34,85.883,34 c0.117,0,0.23,0.014,0.342,0.029c0.012,0.002,0.023,0.003,0.035,0.003c0.121,0,0.229-0.092,0.246-0.217 c0.019-0.137-0.077-0.263-0.214-0.281C86.158,33.516,86.022,33.5,85.883,33.5L85.883,33.5z"/><path fill="#fff" d="M15.405,51H5.5C5.224,51,5,50.776,5,50.5S5.224,50,5.5,50h9.905c0.276,0,0.5,0.224,0.5,0.5 S15.682,51,15.405,51z"/><path fill="#fff" d="M18.5,51h-1c-0.276,0-0.5-0.224-0.5-0.5s0.224-0.5,0.5-0.5h1c0.276,0,0.5,0.224,0.5,0.5 S18.777,51,18.5,51z"/><path fill="#fff" d="M23.491,53H14.5c-0.276,0-0.5-0.224-0.5-0.5s0.224-0.5,0.5-0.5h8.991c0.276,0,0.5,0.224,0.5,0.5 S23.767,53,23.491,53z"/><path fill="#fff" d="M12.5,53h-1c-0.276,0-0.5-0.224-0.5-0.5s0.224-0.5,0.5-0.5h1c0.276,0,0.5,0.224,0.5,0.5 S12.777,53,12.5,53z"/><path fill="#fff" d="M9.5,53h-2C7.224,53,7,52.776,7,52.5S7.224,52,7.5,52h2c0.276,0,0.5,0.224,0.5,0.5S9.777,53,9.5,53z"/><path fill="#fff" d="M15.5,55h-2c-0.276,0-0.5-0.224-0.5-0.5s0.224-0.5,0.5-0.5h2c0.276,0,0.5,0.224,0.5,0.5 S15.776,55,15.5,55z"/><path fill="#fff" d="M18.5,46c-0.177,0-0.823,0-1,0c-0.276,0-0.5,0.224-0.5,0.5c0,0.276,0.224,0.5,0.5,0.5 c0.177,0,0.823,0,1,0c0.276,0,0.5-0.224,0.5-0.5C19,46.224,18.776,46,18.5,46z"/><path fill="#fff" d="M18.5,48c-0.177,0-4.823,0-5,0c-0.276,0-0.5,0.224-0.5,0.5c0,0.276,0.224,0.5,0.5,0.5 c0.177,0,4.823,0,5,0c0.276,0,0.5-0.224,0.5-0.5C19,48.224,18.776,48,18.5,48z"/><path fill="#fff" d="M23.5,50c-0.177,0-2.823,0-3,0c-0.276,0-0.5,0.224-0.5,0.5c0,0.276,0.224,0.5,0.5,0.5 c0.177,0,2.823,0,3,0c0.276,0,0.5-0.224,0.5-0.5C24,50.224,23.776,50,23.5,50z"/><g><path fill="#fff" d="M65.5,19h-10c-0.276,0-0.5-0.224-0.5-0.5s0.224-0.5,0.5-0.5h10c0.276,0,0.5,0.224,0.5,0.5 S65.776,19,65.5,19z"/><path fill="#fff" d="M69.5,19h-2c-0.276,0-0.5-0.224-0.5-0.5s0.224-0.5,0.5-0.5h2c0.276,0,0.5,0.224,0.5,0.5 S69.776,19,69.5,19z"/><path fill="#fff" d="M74.5,21h-10c-0.276,0-0.5-0.224-0.5-0.5s0.224-0.5,0.5-0.5h10c0.276,0,0.5,0.224,0.5,0.5 S74.777,21,74.5,21z"/><path fill="#fff" d="M62.5,21h-1c-0.276,0-0.5-0.224-0.5-0.5s0.224-0.5,0.5-0.5h1c0.276,0,0.5,0.224,0.5,0.5 S62.776,21,62.5,21z"/><path fill="#fff" d="M59.375,21H57.5c-0.276,0-0.5-0.224-0.5-0.5s0.224-0.5,0.5-0.5h1.875c0.276,0,0.5,0.224,0.5,0.5 S59.651,21,59.375,21z"/><path fill="#fff" d="M68.5,17h-5c-0.276,0-0.5-0.224-0.5-0.5s0.224-0.5,0.5-0.5h5c0.276,0,0.5,0.224,0.5,0.5 S68.777,17,68.5,17z"/><path fill="#fff" d="M65.5,23h-2c-0.276,0-0.5-0.224-0.5-0.5s0.224-0.5,0.5-0.5h2c0.276,0,0.5,0.224,0.5,0.5 S65.776,23,65.5,23z"/></g><path fill="#355ca8" d="M54.625,30C44.615,30,36.5,38.365,36.5,48.375S44.615,66.5,54.625,66.5S72.75,58.385,72.75,48.375	S64.635,30,54.625,30L54.625,30z"/><path fill="#1e65d6" d="M44.194,40.215c-1.65-0.631-3.441-0.976-5.313-0.976C30.662,39.239,24,45.901,24,54.12	c0,3.095,0.946,5.968,2.563,8.348c0.076-0.033,20.556-8.611,33.007-13.61C52.69,44.71,46.379,41.051,44.194,40.215z"/><path fill="#4792dd" d="M84,56.966c0-6.646-5.388-12.034-12.034-12.034c-1.246,0-2.447,0.19-3.579,0.541	c-1.245,0.388-4.565,1.678-8.817,3.385c10.471,6.313,22.238,13.745,22.815,14.11C83.406,61.2,84,59.154,84,56.966z"/><g><path fill="#55a7f9" d="M82.386,62.969c-0.579-0.365-12.344-7.798-22.815-14.11c-12.452,4.998-32.932,13.576-33.009,13.609 C27.084,63.235,31.034,69,38.88,69c6.288,0,20.22,0,32.942,0C78.586,69,81.685,64.183,82.386,62.969z"/><path fill="#472b29" d="M71.822,69.25H46.938c-0.138,0-0.25-0.112-0.25-0.25s0.112-0.25,0.25-0.25h24.884 c6.024,0,9.089-3.83,10.226-5.699c-2.386-1.506-13.021-8.198-22.499-13.914c-4.238,1.702-9.874,4.007-16.753,6.85 c-0.126,0.051-0.273-0.008-0.327-0.136c-0.053-0.128,0.009-0.274,0.136-0.327c6.943-2.869,12.621-5.189,16.874-6.897 c0.071-0.027,0.156-0.022,0.222,0.019c9.701,5.848,20.652,12.745,22.749,14.068l0.071,0.044c0.113,0.072,0.149,0.221,0.083,0.337 C81.768,64.538,78.521,69.25,71.822,69.25z M43.938,69.25H38.88c-7.435,0-11.466-5.084-12.524-6.642 c-0.041-0.061-0.054-0.136-0.034-0.207c0.02-0.07,0.068-0.129,0.135-0.16c0.047-0.021,4.293-1.799,9.673-4.033 c0.127-0.056,0.274,0.006,0.326,0.135c0.054,0.127-0.007,0.273-0.135,0.326c-4.739,1.969-8.365,3.485-9.376,3.909 c1.247,1.735,5.106,6.172,11.936,6.172h5.058c0.138,0,0.25,0.112,0.25,0.25S44.075,69.25,43.938,69.25z M38.074,57.921 c-0.098,0-0.191-0.058-0.23-0.154c-0.054-0.127,0.007-0.273,0.135-0.326l2.774-1.151c0.126-0.051,0.274,0.008,0.327,0.136 s-0.008,0.273-0.136,0.327l-2.774,1.149C38.139,57.915,38.106,57.921,38.074,57.921z"/></g><path fill="#472b29" d="M54.625,30.4c8.112,0,15.366,5.857,17.25,13.926l0.229,0.979l1.001,0.096	C79.088,45.976,83.6,50.948,83.6,56.967c0,2.025-0.54,4.031-1.56,5.801c-0.79,1.368-3.862,5.832-10.217,5.832H38.88	c-7.114,0-10.973-4.866-11.986-6.357C25.262,59.84,24.4,57.032,24.4,54.12c0-7.761,6.308-14.255,14.062-14.476l0.749-0.021	l0.398-0.635C42.928,33.691,48.682,30.4,54.625,30.4 M54.625,29c-6.562,0-12.717,3.682-16.203,9.245	C29.877,38.488,23,45.517,23,54.12c0,3.193,0.946,6.274,2.735,8.909C26.847,64.665,31.077,70,38.88,70h32.942	c7.107,0,10.545-5,11.43-6.532C84.396,61.485,85,59.237,85,56.967c0-6.771-5.105-12.319-11.762-12.959	C71.231,35.411,63.524,29,54.625,29L54.625,29z"/><g><path fill="#472b29" d="M71.822,66H53.5c-0.276,0-0.5-0.224-0.5-0.5s0.224-0.5,0.5-0.5h18.322 c2.774,0,4.632-1.23,5.7-2.263c0.2-0.191,0.517-0.186,0.707,0.012c0.192,0.199,0.187,0.516-0.012,0.707 C77.016,64.617,74.931,66,71.822,66z M50.5,66h-2c-0.276,0-0.5-0.224-0.5-0.5s0.224-0.5,0.5-0.5h2c0.276,0,0.5,0.224,0.5,0.5 S50.776,66,50.5,66z M45.5,66h-0.979c-0.276,0-0.5-0.224-0.5-0.5s0.224-0.5,0.5-0.5H45.5c0.276,0,0.5,0.224,0.5,0.5 S45.776,66,45.5,66z M80.374,58.917c-0.029,0-0.059-0.002-0.088-0.008c-0.271-0.048-0.453-0.307-0.405-0.579 C79.96,57.879,80,57.42,80,56.967c0-1.75-0.544-3.407-1.574-4.795l-0.186-0.24c-0.173-0.215-0.139-0.529,0.077-0.702 c0.214-0.172,0.529-0.138,0.702,0.077c0.071,0.088,0.14,0.177,0.208,0.268C80.388,53.137,81,55.001,81,56.967 c0,0.511-0.045,1.028-0.135,1.537C80.823,58.746,80.612,58.917,80.374,58.917z M28.178,58.498c-0.204,0-0.396-0.126-0.47-0.329 C27.238,56.874,27,55.512,27,54.12c0-6.367,5.175-11.695,11.535-11.877l2.407-0.068c0.29,0.005,0.507,0.21,0.515,0.485 c0.008,0.276-0.21,0.507-0.485,0.515l-2.407,0.068C32.739,43.409,28,48.289,28,54.12c0,1.274,0.218,2.522,0.647,3.707 c0.095,0.26-0.04,0.547-0.299,0.641C28.292,58.488,28.234,58.498,28.178,58.498z M76.382,50.157c-0.092,0-0.182-0.026-0.261-0.073 v0.001c-0.537-0.321-1.112-0.579-1.71-0.766c-0.264-0.083-0.41-0.363-0.328-0.627c0.083-0.263,0.359-0.413,0.627-0.328 c0.667,0.209,1.31,0.496,1.91,0.854c0.156,0.084,0.262,0.25,0.262,0.439C76.882,49.934,76.658,50.157,76.382,50.157z M71.556,48.869l-2.013-0.193c-0.214-0.021-0.391-0.176-0.439-0.385l-0.734-3.146C66.862,38.688,61.082,34,54.625,34 c-3.094,0-6.195,1.146-8.733,3.227c-0.216,0.176-0.529,0.144-0.704-0.069c-0.175-0.214-0.144-0.529,0.069-0.704 C47.974,34.227,51.301,33,54.625,33c6.917,0,13.106,5.012,14.719,11.918l0.652,2.797l1.579,0.151l0.03,0.506L71.556,48.869z"/></g><g><path fill="#fdfcef" d="M36.5,73.5c0,0,1.567,0,3.5,0s3.5-1.567,3.5-3.5c0-1.781-1.335-3.234-3.055-3.455 C40.473,66.366,40.5,66.187,40.5,66c0-1.933-1.567-3.5-3.5-3.5c-1.032,0-1.95,0.455-2.59,1.165 c-0.384-1.808-1.987-3.165-3.91-3.165c-2.209,0-4,1.791-4,4c0,0.191,0.03,0.374,0.056,0.558C26.128,64.714,25.592,64.5,25,64.5 c-1.228,0-2.245,0.887-2.455,2.055C22.366,66.527,22.187,66.5,22,66.5c-1.933,0-3.5,1.567-3.5,3.5s1.567,3.5,3.5,3.5s7.5,0,7.5,0 V74h7V73.5z"/><path fill="#472b29" d="M38.25,69C38.112,69,38,68.888,38,68.75c0-1.223,0.995-2.218,2.218-2.218 c0.034,0.009,0.737-0.001,1.244,0.136c0.133,0.036,0.212,0.173,0.176,0.306c-0.036,0.134-0.173,0.213-0.306,0.176 c-0.444-0.12-1.1-0.12-1.113-0.118c-0.948,0-1.719,0.771-1.719,1.718C38.5,68.888,38.388,69,38.25,69z"/><circle cx="31.5" cy="73.5" r=".5" fill="#472b29"/><path fill="#472b29" d="M40,74h-3.5c-0.276,0-0.5-0.224-0.5-0.5s0.224-0.5,0.5-0.5H40c1.654,0,3-1.346,3-3 c0-1.496-1.125-2.768-2.618-2.959c-0.134-0.018-0.255-0.088-0.336-0.196s-0.115-0.244-0.094-0.377C39.975,66.314,40,66.16,40,66 c0-1.654-1.346-3-3-3c-0.85,0-1.638,0.355-2.219,1c-0.125,0.139-0.321,0.198-0.5,0.148c-0.182-0.049-0.321-0.195-0.36-0.379 C33.58,62.165,32.141,61,30.5,61c-1.93,0-3.5,1.57-3.5,3.5c0,0.143,0.021,0.28,0.041,0.418c0.029,0.203-0.063,0.438-0.242,0.54 c-0.179,0.102-0.396,0.118-0.556-0.01C25.878,65.155,25.449,65,25,65c-0.966,0-1.792,0.691-1.963,1.644 c-0.048,0.267-0.296,0.446-0.569,0.405C22.314,67.025,22.16,67,22,67c-1.654,0-3,1.346-3,3s1.346,3,3,3h7.5 c0.276,0,0.5,0.224,0.5,0.5S29.776,74,29.5,74H22c-2.206,0-4-1.794-4-4s1.794-4,4-4c0.059,0,0.116,0.002,0.174,0.006 C22.588,64.82,23.711,64,25,64c0.349,0,0.689,0.061,1.011,0.18C26.176,61.847,28.126,60,30.5,60c1.831,0,3.466,1.127,4.153,2.774 C35.333,62.276,36.155,62,37,62c2.206,0,4,1.794,4,4c0,0.048-0.001,0.095-0.004,0.142C42.739,66.59,44,68.169,44,70 C44,72.206,42.206,74,40,74z"/><path fill="#472b29" d="M34.5,73c-0.159,0-0.841,0-1,0c-0.276,0-0.5,0.224-0.5,0.5c0,0.276,0.224,0.5,0.5,0.5 c0.159,0,0.841,0,1,0c0.276,0,0.5-0.224,0.5-0.5C35,73.224,34.776,73,34.5,73z"/></g><g><path fill="#472b29" d="M59.57,49.108c-0.099,0-0.192-0.06-0.232-0.157c-0.051-0.128,0.011-0.273,0.14-0.325 c2.88-1.156,5.14-2.043,6.716-2.637c0.131-0.049,0.272,0.017,0.322,0.146c0.048,0.129-0.018,0.273-0.146,0.322 c-1.572,0.591-3.828,1.478-6.706,2.633C59.633,49.103,59.602,49.108,59.57,49.108z"/></g><g><path fill="#472b29" d="M59.57,49.107c-0.044,0-0.089-0.012-0.129-0.036c-3.368-2.03-6.265-3.741-8.609-5.085 c-0.12-0.068-0.161-0.222-0.093-0.341c0.067-0.121,0.221-0.162,0.341-0.093c2.349,1.346,5.248,3.059,8.619,5.091 c0.118,0.071,0.156,0.225,0.085,0.343C59.737,49.064,59.655,49.107,59.57,49.107z M49.216,43.034c-0.042,0-0.084-0.01-0.122-0.032 c-1.002-0.562-1.888-1.043-2.63-1.431c-0.123-0.064-0.17-0.215-0.106-0.337c0.065-0.123,0.219-0.169,0.337-0.106 c0.748,0.391,1.637,0.874,2.644,1.438c0.12,0.067,0.163,0.22,0.096,0.34C49.388,42.988,49.303,43.034,49.216,43.034z M44.785,40.714c-0.034,0-0.069-0.007-0.103-0.021c-0.217-0.098-0.411-0.18-0.579-0.244c-1.665-0.637-3.423-0.96-5.223-0.96 c-0.138,0-0.25-0.112-0.25-0.25s0.112-0.25,0.25-0.25c1.861,0,3.679,0.334,5.401,0.993c0.177,0.068,0.379,0.152,0.605,0.254 c0.126,0.057,0.182,0.205,0.126,0.331C44.972,40.659,44.881,40.714,44.785,40.714z"/></g></svg>